# xmcd
#
# Track frame offsets:
#	151
#	14727
#	36037
#	52205
#	64964
#	83435
#	96262
#	115927
#	129020
#	142954
#	161076
#	178262
#
# Disc length: 2579 seconds
#
# Revision: 1
# Processed by: cddbd v1.4PL0 Copyright (c) Steve Scherf et al.
# Submitted via: audiograbber 1.81.03
#
DISCID=a30a110c
DTITLE=Tim Watson and Black Creek - God's Country
DYEAR=2002
DGENRE=Southern Gospel
TTITLE0=Will the Circle be Unbroken
TTITLE1=Amazing Grace
TTITLE2=Go Tell it on the Mountain
TTITLE3=Standing on the Promises
TTITLE4=What a Friend We Have in Jesus
TTITLE5=I'll Fly Away
TTITLE6=The Old Rugged Cross
TTITLE7=When We All Get To Heaven
TTITLE8=Jesus Loves Me
TTITLE9=Sweet Sweet Spirit
TTITLE10=Love Lifted Me
TTITLE11=Keeps Me Singing as I Go
EXTD=
EXTT0=
EXTT1=
EXTT2=
EXTT3=
EXTT4=
EXTT5=
EXTT6=
EXTT7=
EXTT8=
EXTT9=
EXTT10=
EXTT11=
PLAYORDER=
